<svg width="22" height="15" viewBox="0 0 22 15" fill="none" xmlns="http://www.w3.org/2000/svg">
<path d="M1.87109 6.63281C1.31881 6.63281 0.871094 7.08053 0.871094 7.63281C0.871094 8.1851 1.31881 8.63281 1.87109 8.63281L1.87109 6.63281ZM20.8322 8.33992C21.2227 7.9494 21.2227 7.31623 20.8322 6.92571L14.4682 0.561746C14.0777 0.171221 13.4445 0.171221 13.054 0.561746C12.6635 0.95227 12.6635 1.58543 13.054 1.97596L18.7108 7.63281L13.054 13.2897C12.6635 13.6802 12.6635 14.3134 13.054 14.7039C13.4445 15.0944 14.0777 15.0944 14.4682 14.7039L20.8322 8.33992ZM1.87109 7.63281L1.87109 8.63281L20.1251 8.63281L20.1251 7.63281L20.1251 6.63281L1.87109 6.63281L1.87109 7.63281Z" fill="white"/>
</svg>
