<svg width="151" height="48" viewBox="0 0 151 48" fill="none" xmlns="http://www.w3.org/2000/svg">
<path d="M47 24C47 36.9787 36.4787 47.5 23.5 47.5C10.5213 47.5 0 36.9787 0 24C0 11.0213 10.5213 0.5 23.5 0.5C36.4787 0.5 47 11.0213 47 24Z" fill="#FBFBFB"/>
<mask id="mask0_665_983" style="mask-type:alpha" maskUnits="userSpaceOnUse" x="4" y="3" width="39" height="42">
<path fill-rule="evenodd" clip-rule="evenodd" d="M35.9225 20.0179C37.1343 19.9943 38.3263 19.7416 38.9974 19.1219C37.7659 19.6903 36.708 19.9627 35.4805 19.4022C38.3342 16.9471 40.0947 17.8115 41.6932 18.8417C39.771 19.2325 38.5908 22.1652 35.9225 20.0179Z" fill="#00713C"/>
<path fill-rule="evenodd" clip-rule="evenodd" d="M16.2293 27.3589C15.0018 27.6984 13.861 28.2707 13.3519 29.0996C14.4452 28.1799 15.4478 27.6194 16.853 27.8918C14.6426 31.2311 12.6058 30.7653 10.6836 30.0904C12.5309 29.1786 12.9019 25.7722 16.2293 27.355" fill="#009278"/>
<path fill-rule="evenodd" clip-rule="evenodd" d="M10.048 27.3207C9.0652 27.3957 8.10605 27.6602 7.58503 28.2088C8.56392 27.6759 9.41649 27.3996 10.4309 27.8141C8.20473 30.0048 6.74429 29.3574 5.41016 28.5641C6.95743 28.1496 7.81001 25.6313 10.052 27.3168" fill="#87B340"/>
<path fill-rule="evenodd" clip-rule="evenodd" d="M10.5686 23.4053C9.41209 23.0659 8.19638 22.9475 7.34774 23.3343C8.7095 23.1646 9.80286 23.2238 10.7778 24.1198C7.23722 25.596 5.86362 24.25 4.69922 22.7975C6.657 23.0027 8.77266 20.5753 10.5686 23.4053Z" fill="#00713C"/>
<path fill-rule="evenodd" clip-rule="evenodd" d="M9.59978 19.3003C8.93667 18.874 8.19066 18.578 7.57096 18.6648C8.4709 18.8069 9.15376 19.0438 9.58005 19.7898C7.02626 20.0779 6.43813 18.9727 6 17.8359C7.19993 18.3254 9.04719 17.1728 9.59584 19.2964" fill="#00713C"/>
<path fill-rule="evenodd" clip-rule="evenodd" d="M14.926 21.255C14.2353 20.7892 13.4498 20.4616 12.7748 20.5485C13.7379 20.7103 14.4602 20.9748 14.8786 21.78C12.1078 22.0523 11.5354 20.8642 11.1328 19.6406C12.3959 20.1774 14.4563 18.9736 14.926 21.2511" fill="#87B340"/>
<path fill-rule="evenodd" clip-rule="evenodd" d="M16.8203 24.2391C15.7269 23.8405 14.5586 23.6629 13.6941 23.9944C15.0362 23.8997 16.0979 24.0181 16.9545 24.9536C13.3626 26.2167 12.1587 24.8154 11.168 23.3195C13.0507 23.6234 15.3559 21.3498 16.8203 24.2352" fill="#87B340"/>
<path fill-rule="evenodd" clip-rule="evenodd" d="M14.2824 17.5267C13.2995 16.5794 12.0996 15.8215 10.9352 15.7544C12.4904 16.307 13.6035 16.9464 14.0021 18.3398C9.234 17.9135 8.72877 15.8649 8.51562 13.8203C10.4379 15.0558 14.3692 13.7927 14.2824 17.5267Z" fill="#87B340"/>
<path fill-rule="evenodd" clip-rule="evenodd" d="M16.1878 12.4972C15.5524 11.7275 14.759 11.0881 13.9617 10.9696C15.0077 11.4749 15.7458 12.0196 15.9589 13.0932C12.7025 12.5051 12.442 10.9302 12.3828 9.375C13.6498 10.4131 16.4049 9.67893 16.1878 12.4932" fill="#00713C"/>
<path fill-rule="evenodd" clip-rule="evenodd" d="M18.5213 20.4726C18.095 19.7661 17.5266 19.1464 16.8833 18.9569C17.6806 19.4937 18.2213 20.0266 18.2608 20.9384C15.6439 20.0818 15.636 18.7516 15.786 17.4609C16.6977 18.4635 19.07 18.1714 18.5213 20.4726Z" fill="#00713C"/>
<path fill-rule="evenodd" clip-rule="evenodd" d="M20.1316 16.9234C19.6817 16.0156 19.0462 15.2064 18.2923 14.9341C19.2041 15.6525 19.808 16.3511 19.7764 17.4918C16.7055 16.2603 16.8081 14.6025 17.1042 13C18.1146 14.3065 20.9882 14.0934 20.1356 16.9234" fill="#009278"/>
<path fill-rule="evenodd" clip-rule="evenodd" d="M21.113 12.6733C20.8011 11.1931 20.1538 9.76423 19.0802 9.01822C20.2051 10.455 20.8485 11.7181 20.3077 13.289C16.0133 10.0997 16.8895 7.83803 18.0421 5.75C19.0644 8.05907 23.6786 9.14058 21.113 12.6693" fill="#87B340"/>
<path fill-rule="evenodd" clip-rule="evenodd" d="M24.2206 8.82329C24.4338 7.7773 24.418 6.70368 23.9404 6.00504C24.2561 7.17734 24.3153 8.14044 23.5338 9.08775C21.6787 6.15503 22.8707 4.80906 24.189 3.63281C24.2009 5.3656 26.8455 6.9484 24.2206 8.82724" fill="#00713C"/>
<path fill-rule="evenodd" clip-rule="evenodd" d="M27.2118 13.2901C27.5237 11.8139 28.1671 10.3929 29.2367 9.65087C28.1157 11.0837 27.4724 12.3428 28.0131 13.9059C32.2918 10.7284 31.4155 8.47463 30.2669 6.39844C29.2486 8.69567 24.6541 9.77323 27.2079 13.2901" fill="#87B340"/>
<path fill-rule="evenodd" clip-rule="evenodd" d="M27.9497 17.6634C28.4075 16.72 29.0628 15.8793 29.8443 15.5912C28.9009 16.3411 28.2812 17.0674 28.3246 18.2515C31.4981 16.9569 31.3837 15.2359 31.064 13.5781C30.0259 14.9399 27.0458 14.7346 27.9497 17.6634Z" fill="#009278"/>
<path fill-rule="evenodd" clip-rule="evenodd" d="M32.4915 12.5304C33.0836 11.7371 33.8612 11.0582 34.694 10.8805C33.6362 11.4529 32.9099 12.037 32.7954 13.0909C36.1939 12.2581 36.3044 10.7187 36.2018 9.21484C34.9664 10.32 31.9626 9.83849 32.4915 12.5304Z" fill="#006D3A"/>
<path fill-rule="evenodd" clip-rule="evenodd" d="M34.2148 16.472C35.3082 15.5839 36.6068 14.901 37.8028 14.9247C36.1608 15.3668 34.9608 15.9312 34.428 17.3246C39.3461 17.2733 40.0527 15.2129 40.4553 13.1406C38.3751 14.2498 34.4675 12.6433 34.2148 16.472Z" fill="#87B340"/>
<path fill-rule="evenodd" clip-rule="evenodd" d="M28.5228 22.7908C29.0951 21.5632 29.9477 20.4422 31.0292 19.9883C29.7622 21.0343 28.9452 22.0093 29.0951 23.4697C33.4686 21.4764 33.1686 19.3607 32.5923 17.3438C31.2345 19.1594 27.019 19.2699 28.5228 22.7868" fill="#006D3A"/>
<path fill-rule="evenodd" clip-rule="evenodd" d="M31.9845 23.4715C32.9831 22.99 34.1001 22.7018 35.0001 22.9268C33.6699 22.9742 32.6555 23.1952 31.9766 24.1544C35.7027 24.9675 36.6421 23.5386 37.3565 22.0387C35.5645 22.5163 32.9318 20.6256 31.9845 23.4715Z" fill="#87B340"/>
<path fill-rule="evenodd" clip-rule="evenodd" d="M38.8645 22.571C39.65 22.4013 40.4829 22.3657 41.0789 22.6341C40.1355 22.4841 39.3856 22.4841 38.7422 23.0052C41.221 24.0275 42.1288 23.2459 42.8867 22.3894C41.5447 22.4486 40.0171 20.8895 38.8645 22.5749" fill="#87B340"/>
<path fill-rule="evenodd" clip-rule="evenodd" d="M36.6048 27.4616C37.6074 27.3551 38.6139 27.438 39.2217 27.8761C38.156 27.5366 37.26 27.4261 36.293 28.0103C38.8586 29.7273 40.2401 28.8352 41.4756 27.8287C39.8533 27.7064 38.6297 25.4289 36.6087 27.4616" fill="#006D3A"/>
<path fill-rule="evenodd" clip-rule="evenodd" d="M32.513 28.797C33.6932 29.1009 34.8299 29.6259 35.422 30.3837C34.2813 29.543 33.2748 29.0338 32.0156 29.2904C34.5339 32.3415 36.3496 31.9113 38.0271 31.2837C36.1917 30.4548 35.3588 27.3287 32.5169 28.797" fill="#87B340"/>
<path fill-rule="evenodd" clip-rule="evenodd" d="M27.8238 28.6328C28.4751 29.3393 28.9645 30.1604 28.929 30.8866C28.6251 29.8683 28.2185 29.1144 27.1804 28.7157C27.141 31.6997 28.6724 32.2326 30.2237 32.5839C29.4224 31.2655 30.6894 28.9802 27.8238 28.6328Z" fill="#00713C"/>
<path fill-rule="evenodd" clip-rule="evenodd" d="M30.5587 25.7196C31.4468 25.8182 32.2994 26.0827 32.7297 26.5761C31.881 26.0827 31.1311 25.8143 30.168 26.134C32.0152 28.1036 33.4007 27.5944 34.6835 26.959C33.3059 26.5445 32.7415 24.346 30.5548 25.7196" fill="#009278"/>
<path fill-rule="evenodd" clip-rule="evenodd" d="M36.5265 25.3983C37.4186 25.4575 38.3106 25.347 38.8277 24.9365C37.8962 25.2759 37.1068 25.4062 36.2266 24.9246C38.4291 23.3103 39.6921 24.0484 40.8289 24.897C39.3961 25.0628 38.4054 27.1311 36.5265 25.3983Z" fill="#009278"/>
<path fill-rule="evenodd" clip-rule="evenodd" d="M25.9383 23.8789C25.4804 23.8789 25.1094 24.2618 25.1094 24.7315C25.1094 25.2012 25.4804 25.5841 25.9383 25.5841C26.3961 25.5841 26.7711 25.2012 26.7711 24.7315C26.7711 24.2618 26.3961 23.8789 25.9383 23.8789Z" fill="#00713C"/>
<path fill-rule="evenodd" clip-rule="evenodd" d="M24.9766 24.7331C24.9766 24.1949 25.4025 23.75 25.936 23.75C26.4688 23.75 26.8994 24.1941 26.8994 24.7331C26.8994 25.2722 26.4688 25.7163 25.936 25.7163C25.4025 25.7163 24.9766 25.2713 24.9766 24.7331ZM25.936 24.0111C25.5538 24.0111 25.2377 24.3319 25.2377 24.7331C25.2377 25.1344 25.5538 25.4552 25.936 25.4552C26.319 25.4552 26.6383 25.1335 26.6383 24.7331C26.6383 24.3327 26.319 24.0111 25.936 24.0111Z" fill="#00713C"/>
<path fill-rule="evenodd" clip-rule="evenodd" d="M25.0664 31.25C25.3269 31.6723 25.3269 32.1578 25.319 32.4618H23.5625C24.0914 32.1381 24.6164 31.8736 25.0664 31.25Z" fill="#009278"/>
<path fill-rule="evenodd" clip-rule="evenodd" d="M25.0766 31.0156L25.1792 31.182C25.4619 31.6403 25.4591 32.1614 25.4512 32.4657L25.4479 32.5929H23.5642L23.4961 32.3509C23.5626 32.3103 23.6284 32.2708 23.6936 32.2317C24.1555 31.9549 24.5844 31.6978 24.9622 31.1741L25.0766 31.0156ZM24.0336 32.3317H25.1922C25.1931 32.0873 25.1729 31.781 25.047 31.4917C24.7299 31.8773 24.3813 32.1184 24.0336 32.3317Z" fill="#009278"/>
<path fill-rule="evenodd" clip-rule="evenodd" d="M17.0078 24.4736C18.8235 26.4313 20.8681 26.6366 22.4233 25.9419C23.5798 25.4248 24.4639 24.3828 24.7837 23.3486C24.8626 23.096 24.9771 22.7052 24.9613 22.4526C24.9415 22.054 24.6929 21.7145 23.8245 22.0855C24.8823 21.2211 25.4034 21.6158 25.4705 22.35C25.5297 22.9855 25.2257 23.8973 24.906 24.6591C24.7758 24.9709 24.6731 25.2511 24.5587 25.4919L23.5403 26.1156C23.2601 26.609 22.8298 27.2523 23.3311 27.7339C24.1758 28.547 22.7075 30.1732 22.3128 31.1561C21.8075 30.9074 21.5667 30.6903 21.843 30.0351C21.993 29.5535 21.8588 28.5628 21.476 28.2549C21.1641 27.9273 20.9194 27.7576 20.5247 27.5602C19.1353 26.8774 17.5249 26.1708 17.0078 24.4775V24.4736Z" fill="#009278"/>
<path fill-rule="evenodd" clip-rule="evenodd" d="M24.5233 21.7956C24.6168 21.8027 24.6996 21.8251 24.7721 21.8621C25.0065 21.9816 25.0823 22.225 25.0933 22.4433C25.0933 22.4435 25.0933 22.4438 25.0933 22.4441L24.9629 22.4505L25.0932 22.4424C25.0933 22.4427 25.0933 22.443 25.0933 22.4433C25.1022 22.5887 25.074 22.7641 25.037 22.9274C24.9993 23.0935 24.9497 23.2583 24.91 23.3853C24.5789 24.4559 23.6683 25.5269 22.4782 26.059C21 26.7193 19.1054 26.586 17.3725 25.0148C17.2778 24.8363 17.1976 24.6444 17.1343 24.4373L17.0224 24.4715H17.0095L16.9137 24.5603C17.0651 24.7235 17.2182 24.8748 17.3725 25.0148C17.986 26.1708 19.2084 26.7684 20.3753 27.3388C20.4451 27.3729 20.5147 27.4069 20.5839 27.441L20.5847 27.4414C20.9888 27.6434 21.2456 27.8208 21.5665 28.1568C21.5642 28.1549 21.5618 28.153 21.5594 28.1511L21.4776 28.2528L21.5722 28.1628C21.5703 28.1608 21.5684 28.1588 21.5665 28.1568C21.681 28.2516 21.7696 28.3891 21.8368 28.54C21.9061 28.6953 21.9567 28.8736 21.9895 29.0545C22.0543 29.4127 22.0528 29.8038 21.9694 30.0718L21.9675 30.0779L21.965 30.0837C21.8323 30.3983 21.8406 30.5695 21.9018 30.6847C21.9571 30.7888 22.0684 30.8759 22.2501 30.9742C22.2295 31.0188 22.2104 31.0626 22.1933 31.1053L22.3144 31.154L22.3721 31.0368C22.3283 31.0153 22.2877 30.9945 22.2501 30.9742C22.3536 30.7504 22.4974 30.5038 22.6465 30.2524C22.6639 30.223 22.6814 30.1936 22.699 30.1641C22.864 29.8865 23.0333 29.6016 23.1712 29.3215C23.3244 29.0106 23.4326 28.7177 23.4555 28.4598C23.4778 28.2075 23.4187 27.9958 23.2422 27.8259C23.2422 27.8258 23.2423 27.8259 23.2422 27.8259C23.0984 27.6877 23.0174 27.5332 22.9863 27.3695C22.9556 27.2079 22.9751 27.0456 23.0187 26.8916C23.0922 26.6315 23.2426 26.3712 23.3692 26.1521C23.3897 26.1166 23.4096 26.0822 23.4284 26.049L23.4451 26.0197L24.4588 25.3989C24.4534 25.4106 24.4479 25.4222 24.4424 25.4338L24.5603 25.4898L24.4921 25.3785L24.4588 25.3989C24.5252 25.2558 24.5872 25.1008 24.6555 24.9304C24.6964 24.8283 24.7396 24.7207 24.7872 24.6067C24.9458 24.2288 25.0995 23.816 25.2059 23.4211C25.313 23.0241 25.3696 22.6549 25.3421 22.36C25.3102 22.0111 25.1761 21.8 24.9827 21.7411C24.8728 21.7077 24.7214 21.715 24.5233 21.7956ZM25.6021 22.336C25.5669 21.9508 25.407 21.5973 25.0587 21.4913C24.7209 21.3886 24.2786 21.5451 23.7435 21.9824L23.8775 22.2035C24.3023 22.022 24.534 22.0337 24.6535 22.0947C24.7652 22.1516 24.8236 22.2768 24.8325 22.457L24.8326 22.4587C24.8393 22.5657 24.8182 22.7116 24.7823 22.8696C24.747 23.0252 24.6999 23.182 24.6607 23.3076C24.3523 24.3052 23.4945 25.3186 22.3717 25.8206C20.8713 26.4908 18.8857 26.3025 17.1052 24.3827L16.8789 24.4715V24.4949L16.8846 24.5136C17.3917 26.1743 18.9139 26.9167 20.2381 27.5625C20.3156 27.6003 20.3924 27.6378 20.4683 27.6751C20.8511 27.8665 21.083 28.0276 21.383 28.3428L21.389 28.3491L21.3958 28.3546C21.4693 28.4137 21.5388 28.5128 21.5983 28.6463C21.6572 28.7784 21.7026 28.9356 21.7325 29.101C21.7925 29.4326 21.7867 29.7745 21.7218 29.9884C21.5805 30.3261 21.5554 30.5892 21.6712 30.8072C21.7821 31.016 22.0066 31.148 22.2568 31.2711L22.3831 31.3333L22.4356 31.2026C22.5298 30.9679 22.6901 30.6907 22.8711 30.3856C22.8885 30.3562 22.9061 30.3266 22.9238 30.2968C23.088 30.0207 23.2627 29.7268 23.4055 29.4369C23.5631 29.1168 23.6884 28.7893 23.7156 28.4829C23.7433 28.1708 23.6692 27.8744 23.4233 27.6377C23.3165 27.5352 23.2633 27.4286 23.2428 27.3208C23.222 27.2109 23.2335 27.0913 23.2699 26.9626C23.3338 26.7367 23.4651 26.5089 23.5928 26.2873C23.6082 26.2606 23.6236 26.2339 23.6388 26.2073L24.6616 25.5809L24.6782 25.5459C24.7541 25.3862 24.8262 25.2067 24.9024 25.0165C24.9427 24.9159 24.9842 24.8124 25.0281 24.7073C25.1892 24.3235 25.3475 23.8993 25.458 23.4891C25.5681 23.081 25.6338 22.6766 25.6021 22.336Z" fill="#009278"/>
<path fill-rule="evenodd" clip-rule="evenodd" d="M21.1134 23.6797C20.4819 23.6797 19.9688 24.1968 19.9688 24.8362C19.9688 25.4756 20.4819 25.9927 21.1134 25.9927C21.745 25.9927 22.2581 25.4756 22.2581 24.8362C22.2581 24.1968 21.745 23.6797 21.1134 23.6797Z" fill="#009278"/>
<path fill-rule="evenodd" clip-rule="evenodd" d="M19.8398 24.8378C19.8398 24.1275 20.4103 23.5508 21.1151 23.5508C21.8199 23.5508 22.3903 24.1275 22.3903 24.8378C22.3903 25.5482 21.8199 26.1249 21.1151 26.1249C20.4103 26.1249 19.8398 25.5482 19.8398 24.8378ZM21.1151 23.8119C20.5568 23.8119 20.101 24.2694 20.101 24.8378C20.101 25.4063 20.5568 25.8638 21.1151 25.8638C21.6733 25.8638 22.1292 25.4063 22.1292 24.8378C22.1292 24.2694 21.6733 23.8119 21.1151 23.8119Z" fill="#009278"/>
<path fill-rule="evenodd" clip-rule="evenodd" d="M24.984 29.3402C24.534 28.7797 24.5537 27.9824 25.0905 27.493C25.7931 26.8496 27.1983 26.0878 28.5285 25.3694C28.9824 25.1247 29.3613 24.8208 29.7442 24.4813C29.985 24.2682 30.2257 24.0826 30.4389 23.8063C28.7771 24.8997 26.622 26.3009 24.7392 25.5707C24.3169 25.4049 23.5275 24.8326 23.2748 24.4142C23.1446 24.1971 22.9749 23.909 22.8722 23.6011C22.6038 22.7801 22.6236 21.8565 23.6972 22.0617C23.1209 21.6591 22.738 21.8722 22.5446 22.1051C22.3315 22.3617 22.2802 22.8709 22.3907 23.4314C22.5762 24.3866 23.1446 25.5233 23.5472 26.0404C23.5867 26.0878 23.3656 26.4509 23.3183 26.5378C23.0696 27.0035 23.0341 27.4298 23.3183 27.6943C23.5946 27.9548 23.6419 28.3929 23.5511 28.7205C23.2235 30.0389 21.5578 31.9808 21.9999 32.5492C22.1696 32.7703 22.3315 32.8374 22.5999 32.8019C22.9433 32.7545 23.3104 32.5532 23.563 32.4308C24.3169 32.0677 25.201 31.4006 25.3984 30.5401C25.4852 30.1612 25.3076 29.7231 24.9958 29.3363" fill="#00713C"/>
<path d="M21.1359 27.5301C21.5109 27.5301 21.8148 27.2173 21.8148 26.8315C21.8148 26.4456 21.5109 26.1328 21.1359 26.1328C20.761 26.1328 20.457 26.4456 20.457 26.8315C20.457 27.2173 20.761 27.5301 21.1359 27.5301Z" fill="#87B340"/>
<path fill-rule="evenodd" clip-rule="evenodd" d="M21.1337 26.2611C20.8343 26.2611 20.5853 26.5119 20.5853 26.8292C20.5853 27.1465 20.8343 27.3973 21.1337 27.3973C21.433 27.3973 21.682 27.1465 21.682 26.8292C21.682 26.5119 21.433 26.2611 21.1337 26.2611ZM20.3242 26.8292C20.3242 26.3748 20.6831 26 21.1337 26C21.5842 26 21.9432 26.3748 21.9432 26.8292C21.9432 27.2836 21.5842 27.6584 21.1337 27.6584C20.6831 27.6584 20.3242 27.2836 20.3242 26.8292Z" fill="#87B340"/>
<path fill-rule="evenodd" clip-rule="evenodd" d="M18.918 27.4624C20.2758 28.3545 22.652 27.9874 22.5849 25.0547C23.1177 26.073 22.6243 26.7283 22.8809 27.8098C23.323 29.6413 23.2638 29.5149 22.4585 30.9635C22.3204 31.2122 22.1151 31.5438 22.0086 31.8477C21.6257 31.7017 21.8546 31.1609 22.127 30.6833C22.423 30.1623 22.3836 29.365 22.0638 28.7887C21.7125 28.1492 21.4797 28.2677 20.9034 28.2598C20.1297 28.244 19.3285 28.3821 18.9219 27.4624H18.918Z" fill="#87B340"/>
<path fill-rule="evenodd" clip-rule="evenodd" d="M22.4565 25.0557L22.7027 24.9922C22.985 25.5316 22.9943 25.9775 22.969 26.4141C22.9652 26.4796 22.9607 26.5445 22.9562 26.6092C22.9309 26.9756 22.9058 27.3378 23.01 27.7774C23.2284 28.682 23.3338 29.1385 23.2686 29.5488C23.2354 29.7572 23.1597 29.9483 23.045 30.1743C22.9682 30.3257 22.8709 30.4982 22.7542 30.7052C22.6988 30.8036 22.639 30.9097 22.5748 31.025C22.5466 31.0758 22.5163 31.1289 22.4851 31.1836C22.358 31.4064 22.2156 31.656 22.134 31.8889L22.0896 32.0155L21.9642 31.9677C21.8352 31.9185 21.7483 31.8303 21.7065 31.7133C21.6671 31.6029 21.6723 31.4798 21.6963 31.3618C21.7442 31.1266 21.8791 30.8563 22.0157 30.6167C22.2851 30.1425 22.2538 29.3943 21.9518 28.85L21.9516 28.8496C21.7824 28.5416 21.6586 28.4476 21.5333 28.4107C21.4647 28.3904 21.3858 28.3844 21.2806 28.3844C21.2436 28.3844 21.1996 28.3853 21.1514 28.3863C21.0757 28.3878 20.9895 28.3895 20.9038 28.3883L20.9029 28.3883C20.8081 28.3864 20.7126 28.3868 20.6156 28.3873L20.61 28.3873C20.5154 28.3878 20.4193 28.3882 20.3243 28.3864C20.1307 28.3827 19.9344 28.3695 19.7471 28.3251C19.3622 28.234 19.0256 28.0129 18.8047 27.5133L18.8746 27.4824L18.9202 27.3299H19.0091L19.0293 27.3754C19.6728 27.7809 20.5384 27.8914 21.2335 27.5722C21.9303 27.2523 22.4892 26.4835 22.4565 25.0557ZM19.3162 27.8143C19.4601 27.9527 19.6263 28.0282 19.8073 28.071C19.9678 28.1091 20.1423 28.1218 20.3292 28.1253C20.4212 28.1271 20.5145 28.1266 20.6101 28.1262L20.6143 28.1262C20.7107 28.1257 20.8093 28.1252 20.9078 28.1272C20.9941 28.1284 21.0654 28.1269 21.134 28.1254C21.1828 28.1243 21.2302 28.1233 21.2806 28.1233C21.3921 28.1233 21.5015 28.1291 21.6071 28.1602C21.83 28.2259 21.9982 28.3923 22.1803 28.7236C22.5177 29.3318 22.5653 30.1781 22.2427 30.7458C22.107 30.9838 21.9911 31.2229 21.9522 31.4139C21.9328 31.5091 21.9356 31.5783 21.9524 31.6254C21.9532 31.6278 21.9541 31.6302 21.9551 31.6325C22.0453 31.4267 22.1641 31.2188 22.264 31.044C22.2936 30.9922 22.3215 30.9433 22.3466 30.8982C22.4134 30.778 22.4746 30.6695 22.5305 30.5703C22.6452 30.3669 22.738 30.2024 22.8122 30.0561C22.9212 29.8412 22.9837 29.6778 23.0107 29.5078C23.0658 29.1612 22.9798 28.7652 22.7562 27.8384C22.642 27.3572 22.6702 26.9525 22.696 26.5854C22.7004 26.5223 22.7048 26.4602 22.7083 26.399C22.7212 26.1768 22.7242 25.9616 22.686 25.7364C22.552 26.8284 22.0237 27.4967 21.3424 27.8095C20.7048 28.1023 19.9542 28.0731 19.3162 27.8143Z" fill="#87B340"/>
<path fill-rule="evenodd" clip-rule="evenodd" d="M21.868 33.2031H25.4401L25.9572 36.0016C24.9191 36.7398 24.2086 37.9634 23.9836 39.5304H23.7902L23.8021 35.8595C23.9718 35.8003 24.0981 35.6227 24.0981 35.4175C24.0981 35.1609 23.9087 34.9517 23.6718 34.9517C23.435 34.9517 23.2455 35.1609 23.2455 35.4175C23.2455 35.6267 23.3718 35.8043 23.5495 35.8635V39.5304H23.3837C23.2495 38.7686 22.9771 37.2134 21.4141 35.9977L21.868 33.2031Z" fill="#009278"/>
<path fill-rule="evenodd" clip-rule="evenodd" d="M21.7576 33.0742H25.5494L26.1014 36.0614L26.0335 36.1097C25.0295 36.8236 24.3344 38.0124 24.1135 39.5506L24.0975 39.6626H23.2748L23.2556 39.554C23.1222 38.7968 22.8561 37.2858 21.3346 36.1024L21.2734 36.0549L21.7576 33.0742ZM23.6726 35.7683L23.7597 35.7379C23.8732 35.6983 23.9682 35.573 23.9682 35.4191C23.9682 35.2231 23.8262 35.0839 23.6725 35.0839C23.5188 35.0839 23.3768 35.2231 23.3768 35.4191C23.3768 35.5766 23.4712 35.7012 23.5914 35.7413L23.6726 35.7683ZM21.9797 33.3353L21.5559 35.9444C22.8245 36.9595 23.2381 38.1937 23.4196 39.0234V35.9501C23.2346 35.8489 23.1156 35.6454 23.1156 35.4191C23.1156 35.102 23.3525 34.8228 23.6725 34.8228C23.9924 34.8228 24.2293 35.102 24.2293 35.4191C24.2293 35.6412 24.1113 35.8433 23.933 35.9447L23.9228 39.1208C24.2013 37.7435 24.8678 36.6473 25.8145 35.946L25.3322 33.3353H21.9797Z" fill="#009278"/>
<path d="M25.3795 32.3828H21.9258V32.9946H25.3795V32.3828Z" fill="#009278"/>
<path fill-rule="evenodd" clip-rule="evenodd" d="M22.4603 21.3584C21.9749 20.7545 21.3552 20.2335 20.7197 20.0796C21.5446 20.5295 22.1209 20.9795 22.263 21.765C19.6579 21.0664 19.5 19.9217 19.5 18.8086C20.4868 19.6572 22.7288 19.377 22.4643 21.3584" fill="#87B340"/>
<path fill-rule="evenodd" clip-rule="evenodd" d="M19.76 23.6351C19.0732 23.497 18.4062 23.2325 18.047 22.8181C18.7298 23.2641 19.318 23.5246 20.0285 23.3391C18.4851 21.6734 17.4628 21.9734 16.5273 22.3839C17.6049 22.8023 18.1891 24.5627 19.76 23.6351Z" fill="#009278"/>
<path fill-rule="evenodd" clip-rule="evenodd" d="M25.4485 20.8418C25.9025 20.2418 26.4748 19.7405 27.059 19.6379C26.2972 20.0405 25.7643 20.4708 25.6262 21.2957C28.0181 20.7905 28.18 19.5827 28.1957 18.3906C27.28 19.2077 25.2393 18.6946 25.4485 20.8418Z" fill="#87B340"/>
<path fill-rule="evenodd" clip-rule="evenodd" d="M23.3665 18.3959C23.2599 17.1959 23.4099 16 24.0296 15.2934C23.5323 16.5526 23.3428 17.6183 24.1007 18.7906C26.5282 15.7987 25.3717 14.1172 24.0494 12.6094C23.8244 14.5395 20.6825 15.9131 23.3705 18.3959" fill="#009278"/>
<path fill-rule="evenodd" clip-rule="evenodd" d="M18.4194 29.4297C17.7721 30.1362 17.2787 30.9572 17.3142 31.6835C17.6181 30.6651 18.0247 29.9112 19.0628 29.5126C19.0983 32.4966 17.5668 33.0295 16.0195 33.3808C16.8208 32.0624 15.5538 29.777 18.4194 29.4297Z" fill="#00713C"/>
<path fill-rule="evenodd" clip-rule="evenodd" d="M17.2398 34.1115C17.2658 34.12 17.297 34.1301 17.3357 34.1416C17.6489 34.2367 18.1695 34.4234 18.4576 34.5634C18.5085 34.588 18.5538 34.6097 18.596 34.63C18.7493 34.7034 18.8609 34.7569 19.0477 34.8565L19.0493 34.8574L19.473 35.1012L20.5012 35.8491C20.6621 35.9778 21.0392 36.3432 21.1903 36.5062L21.1915 36.5076L21.502 36.8653C21.5437 36.9071 21.5768 36.9487 21.609 36.993L22.1695 37.7785C22.1695 37.7784 22.1696 37.7786 22.1695 37.7785C22.1862 37.8015 22.2001 37.8255 22.2123 37.8468C22.2131 37.8483 22.214 37.8498 22.2148 37.8513C22.2281 37.8744 22.2404 37.8954 22.2559 37.916L22.2578 37.9185C22.2815 37.9541 22.2995 37.9867 22.3189 38.0216C22.3265 38.0353 22.3343 38.0493 22.3427 38.064C22.6599 38.6232 22.835 38.9971 23.0649 39.6117C23.1426 39.8168 23.1866 39.9595 23.2414 40.1376C23.2567 40.1874 23.2729 40.2399 23.2909 40.2973M22.7723 40.5375C22.7589 40.5151 22.7501 40.5037 22.7385 40.4885C22.7304 40.4779 22.721 40.4656 22.7076 40.4465C22.5929 40.2844 22.3421 39.9436 22.2222 39.8081L22.2217 39.8077C22.1875 39.7682 22.1557 39.7347 22.121 39.6982C22.105 39.6814 22.0884 39.664 22.0707 39.6451L21.2413 38.8825C21.1186 38.7878 20.8043 38.5707 20.6863 38.506C20.6623 38.4927 20.6422 38.4803 20.6209 38.4672C20.6104 38.4607 20.5996 38.4541 20.5877 38.4469L19.8533 38.0856C19.7946 38.0609 19.7359 38.0387 19.6721 38.0145C19.6566 38.0087 19.6408 38.0027 19.6245 37.9965C19.5858 37.9829 19.548 37.9703 19.5097 37.9576C19.472 37.945 19.4336 37.9322 19.3945 37.9185L18.9087 37.7892C18.8145 37.7697 18.6319 37.7355 18.4472 37.7062C18.2599 37.6765 18.0759 37.6526 17.9786 37.6526C17.943 37.6526 17.9172 37.6492 17.8951 37.6462L17.8927 37.6458C17.8722 37.6429 17.8567 37.6408 17.8365 37.6408V37.608L17.7998 37.6279L17.7958 37.6239L17.8082 37.5941L17.7842 37.5991C17.7773 37.5665 17.7669 37.5375 17.7546 37.5073C17.7512 37.4989 17.7476 37.4901 17.7437 37.481C17.7344 37.4587 17.7242 37.4344 17.7154 37.4096C17.701 37.3713 17.6876 37.3314 17.6742 37.2918C17.6655 37.2662 17.6569 37.2406 17.6481 37.2156L17.6476 37.2143C17.426 36.5337 17.3543 36.2943 17.2155 35.5412C17.1877 35.386 17.1678 35.2426 17.148 35.0803C17.1282 34.9339 17.1084 34.7602 17.0927 34.6103C17.0865 34.5666 17.0844 34.5242 17.0825 34.4848L17.0824 34.4837C17.0804 34.4431 17.0786 34.4054 17.0732 34.3673C17.0687 34.3399 17.0676 34.3163 17.0671 34.2953C17.067 34.2907 17.0669 34.2863 17.0668 34.282C17.0665 34.2665 17.0662 34.2531 17.0649 34.2384C17.0646 34.2359 17.0643 34.2335 17.064 34.231C17.0608 34.2057 17.0574 34.1795 17.059 34.16C17.0599 34.1485 17.063 34.1285 17.0779 34.1112C17.0948 34.0918 17.1168 34.0866 17.1326 34.086C17.147 34.0854 17.1613 34.0883 17.1728 34.0911C17.185 34.0941 17.1989 34.0983 17.2139 34.1031C17.222 34.1057 17.2306 34.1085 17.2398 34.1115M17.8846 37.5288C17.8926 37.5298 17.9001 37.5308 17.9073 37.5318C17.9085 37.532 17.9098 37.5322 17.911 37.5324C17.9314 37.5352 17.951 37.5377 17.9786 37.5377C18.0865 37.5377 18.2794 37.5632 18.4652 37.5927C18.6525 37.6224 18.8379 37.6571 18.9337 37.6771L18.9367 37.6777L19.4304 37.8092C19.4694 37.8229 19.5074 37.8357 19.546 37.8486C19.5843 37.8613 19.6234 37.8744 19.6632 37.8883L19.6647 37.8888C19.6807 37.8949 19.6964 37.9009 19.7119 37.9068C19.7765 37.9312 19.838 37.9545 19.8994 37.9804L19.9025 37.9817L20.6449 38.347C20.6603 38.3562 20.6727 38.3641 20.6841 38.3711C20.7037 38.3832 20.7199 38.3932 20.7417 38.4054M17.7567 37.1781C17.7666 37.2063 17.7756 37.2328 17.7842 37.2584C17.797 37.2962 17.8091 37.3323 17.8232 37.3698L17.8236 37.3708C17.8312 37.3926 17.8394 37.4121 17.8482 37.4331C17.8524 37.4429 17.8566 37.4531 17.8611 37.464C17.8693 37.4842 17.8774 37.5056 17.8846 37.5288" fill="#87B340"/>
<path fill-rule="evenodd" clip-rule="evenodd" d="M16.4381 41.6C16.4381 41.6 16.4459 41.6119 16.4025 41.6119C16.2644 41.6079 15.8736 41.6435 15.7355 41.6632C15.3526 41.7145 15.0645 41.7461 14.6738 41.8171C14.5277 41.8448 14.4014 41.8684 14.2672 41.8961C14.133 41.9237 13.9988 41.9553 13.8686 41.9868C13.2963 42.1171 12.3648 42.4131 11.8319 42.6341C11.7688 42.6618 11.7214 42.6855 11.6543 42.7091C11.4135 42.796 10.8215 43.0881 10.5728 43.2262L10.3281 43.3604C10.34 43.4117 10.5057 43.5341 10.5452 43.5656L11.232 44.1616C11.3583 44.2721 11.3188 44.2366 11.5043 44.1577L12.2424 43.838C12.2977 43.8182 12.345 43.7946 12.4003 43.7788L12.4082 43.7669L12.9647 43.5735C13.5804 43.3841 13.9554 43.2815 14.5909 43.1433C14.6501 43.1315 14.6935 43.1157 14.7566 43.1157C14.7566 43.0999 14.7566 43.1038 14.7685 43.1038L15.1869 43.0367C15.4276 42.9933 16.2565 42.8946 16.4933 42.8946C16.5052 42.8828 16.4775 42.8828 16.5249 42.8828L17.1485 42.871C17.2353 42.871 17.2788 42.8591 17.3538 42.8591C17.4327 42.8591 17.4682 42.871 17.5472 42.871L18.1787 42.8828C18.1787 42.8828 18.1905 42.8828 18.2063 42.8828C18.2063 42.8828 18.2103 42.8868 18.2103 42.8828C18.2103 42.8828 18.2103 42.8828 18.2181 42.8868C18.5418 42.8868 19.3667 43.0052 19.6983 43.0644C19.7614 43.0762 19.8443 43.0999 19.9114 43.0959C19.9272 43.0959 19.9232 43.092 19.9232 43.1078C19.9903 43.1078 20.1087 43.1394 20.1719 43.1551C20.2311 43.1709 20.3614 43.2065 20.4285 43.2065L20.4403 43.2183C20.5745 43.2183 21.4784 43.5064 21.6718 43.5656C22.1138 43.7038 22.844 44.0156 23.2624 44.209C23.4953 44.3156 23.5189 44.3708 23.74 44.3669C23.811 44.3669 24.0952 44.2129 24.182 44.1695C24.257 44.134 24.3162 44.1064 24.3952 44.0708C24.8807 43.8617 25.0425 43.7946 25.5398 43.6169C25.6187 43.5893 25.6937 43.5577 25.7727 43.5341C25.8595 43.5104 25.9345 43.4827 26.0174 43.4551C26.0924 43.4314 26.1753 43.4117 26.2581 43.3841L27.2686 43.1315C27.3633 43.1078 28.0146 42.9933 28.0896 42.9933L28.1014 42.9815C28.1882 42.9815 28.2751 42.9657 28.3619 42.9539C28.4527 42.9381 28.5316 42.9341 28.6224 42.9223C28.7921 42.9065 28.9618 42.8789 29.1513 42.8789C29.1592 42.871 29.1513 42.867 29.1868 42.867L29.5341 42.8552C29.6486 42.8552 29.7789 42.8631 29.8933 42.8552C29.9486 42.8552 29.9841 42.8394 30.0551 42.8433C30.1144 42.8473 30.1578 42.8552 30.2288 42.8552C30.3314 42.8552 30.5012 42.8433 30.5959 42.8552C30.6472 42.8631 30.6985 42.8631 30.7617 42.8631C30.8327 42.8631 30.8603 42.8749 30.9353 42.8749C31.1761 42.8749 31.78 42.9736 31.9339 42.9736L31.9576 42.9854C32.0721 42.9854 32.4154 43.0604 32.5536 43.0802L33.1338 43.1946C33.1338 43.1946 33.1496 43.1907 33.1496 43.2065C33.2443 43.2065 33.9311 43.4156 33.9824 43.4156C33.9982 43.4156 33.9942 43.4117 33.9942 43.4275C34.0495 43.4314 34.16 43.4749 34.2153 43.4946L34.6534 43.6367C34.6889 43.6485 34.7205 43.6604 34.7639 43.6722C34.8034 43.688 34.831 43.6998 34.8705 43.7117C35.2375 43.8459 35.4704 43.9564 35.8059 44.1024L36.0032 44.1972C36.0546 44.2208 36.0467 44.2208 36.0901 44.1853L36.8913 43.4946C36.9466 43.4472 37.0295 43.388 37.0413 43.3407L35.9993 42.8118L35.1981 42.4842C35.0994 42.4486 34.5823 42.2592 34.5192 42.2592C34.5034 42.2592 34.5073 42.2631 34.5073 42.2473L33.6311 42.0026C33.3825 41.9395 32.9443 41.8369 32.7115 41.8053C32.5457 41.7816 32.226 41.7066 32.0681 41.7066L32.0563 41.6948C31.9694 41.6948 31.8708 41.675 31.7879 41.6632C31.555 41.6356 31.1879 41.5882 30.963 41.5961C30.9156 41.5961 30.9432 41.5961 30.9314 41.5842C30.8524 41.5842 30.7893 41.5843 30.7261 41.5764L30.063 41.5645C29.917 41.5645 29.7512 41.5566 29.621 41.5724L29.1868 41.5842C29.1868 41.5842 29.2026 41.5961 29.1552 41.5961C28.9184 41.5882 28.5869 41.6395 28.3382 41.6632C28.2553 41.6711 28.1645 41.6948 28.0738 41.6948C28.0738 41.7106 28.0738 41.7066 28.0619 41.7066C27.9593 41.7066 27.829 41.7303 27.7422 41.7461L26.5187 41.9987C26.416 42.0263 26.3213 42.0421 26.2187 42.0737L25.6424 42.2434C25.6424 42.2434 25.6424 42.2552 25.6306 42.2552C25.5319 42.2552 24.6162 42.6144 24.4504 42.6776C24.2926 42.7407 24.3281 42.5907 23.9018 42.5236C23.6808 42.4881 23.3413 42.5157 23.1519 42.6105C23.1203 42.6263 23.0848 42.646 23.0571 42.6618C22.9506 42.7328 22.9072 42.6697 22.7414 42.6026C22.1888 42.3894 21.7744 42.2552 21.206 42.0895C20.689 41.9355 19.8048 41.7579 19.268 41.6908C19.0589 41.6671 18.6997 41.6119 18.4905 41.604C18.3918 41.6 18.3129 41.5882 18.2063 41.5921L18.1787 41.5803C18.0997 41.5803 18.0366 41.5803 17.9734 41.5724L17.3103 41.5606C17.1643 41.5606 16.9985 41.5527 16.8722 41.5685L16.4381 41.5803V41.6Z" fill="#00713C"/>
<path fill-rule="evenodd" clip-rule="evenodd" d="M17.8337 37.5845C17.8851 37.5845 17.9127 37.5963 17.9758 37.5963C18.1811 37.5963 18.7297 37.695 18.9192 37.7345L19.4087 37.8647C19.4876 37.8924 19.5626 37.916 19.6415 37.9437C19.7244 37.9753 19.7994 38.0029 19.8744 38.0345L20.6125 38.3976C20.652 38.4213 20.6757 38.4371 20.7112 38.4568C20.8336 38.5239 21.1533 38.7449 21.2756 38.8397L22.1085 39.6054C22.1637 39.6646 22.2111 39.712 22.2624 39.7712C22.3848 39.9093 22.6374 40.2527 22.7519 40.4146C22.7795 40.4541 22.7953 40.4698 22.819 40.5093C22.8584 40.5764 22.9019 40.6356 22.9453 40.7067C23.044 40.8803 23.1505 41.0501 23.2374 41.2316L23.3913 41.5592C23.4268 41.6342 23.4505 41.7092 23.486 41.7882C23.5216 41.8671 23.5492 41.9974 23.5847 42.025L23.5295 41.6224C23.5058 41.4921 23.486 41.3579 23.4584 41.2316C23.3992 40.9514 23.3203 40.5883 23.2334 40.3159C23.1505 40.0514 23.1071 39.8936 23.0084 39.633C22.7795 39.0212 22.6058 38.6502 22.2901 38.0937C22.2585 38.0384 22.2387 37.9989 22.2072 37.9516C22.1716 37.9042 22.1519 37.8568 22.1203 37.8134L21.5598 37.0279C21.5283 36.9845 21.4967 36.9451 21.4572 36.9056L21.1454 36.5464C20.9954 36.3846 20.6204 36.0214 20.4625 35.8951L19.4363 35.1491L19.0179 34.9083C18.7811 34.782 18.6666 34.7307 18.4298 34.6162C18.1456 34.4781 17.6285 34.2926 17.3167 34.1978C17.1035 34.1347 17.1035 34.1071 17.1193 34.2334C17.1233 34.2768 17.1193 34.3123 17.1272 34.3597C17.1391 34.4426 17.1351 34.5215 17.1469 34.6044C17.1627 34.7544 17.1825 34.9281 17.2022 35.0741C17.2219 35.2359 17.2417 35.378 17.2693 35.532C17.4075 36.2819 17.4785 36.5188 17.6995 37.1977C17.7232 37.2648 17.743 37.3279 17.7666 37.3911C17.7903 37.4582 17.8219 37.5134 17.8377 37.5884L17.8337 37.5845Z" fill="#87B340"/>
<path fill-rule="evenodd" clip-rule="evenodd" d="M23.7852 42.0192C23.8128 41.9955 23.8207 41.9521 23.8365 41.9087L23.9273 41.6758C24.0101 41.4903 24.093 41.3047 24.1878 41.1271C24.3733 40.7877 24.5154 40.539 24.7483 40.2311L25.1706 39.6983C25.2377 39.6272 25.3443 39.5049 25.4035 39.4535L25.7271 39.1417C25.964 38.9325 26.1811 38.7588 26.4495 38.5852C26.706 38.4194 26.8758 38.3168 27.1481 38.1826C27.1876 38.1628 27.2192 38.147 27.2586 38.1313C27.3336 38.0997 27.4047 38.0602 27.4836 38.0326C27.7757 37.926 27.8586 37.8826 28.1823 37.7957C28.4704 37.7168 29.1019 37.5905 29.3782 37.5905C29.4453 37.5905 29.4809 37.5787 29.5322 37.5787L29.6703 37.2076C29.698 37.1405 29.7098 37.0774 29.7335 37.0142C29.8045 36.8169 29.8558 36.6116 29.9111 36.4103C30.0216 36.0156 30.1598 35.2814 30.1953 34.863C30.2111 34.7051 30.2545 34.267 30.2545 34.1328C30.1203 34.1328 29.3151 34.4407 29.1177 34.5275L28.6678 34.7328C28.6164 34.7604 28.5691 34.7762 28.5178 34.8038C28.202 34.9696 27.9731 35.1117 27.681 35.3012C27.4915 35.4235 27.3455 35.534 27.1639 35.6722L26.9192 35.8735C26.7534 36.0077 26.6034 36.1498 26.4534 36.2998L26.3429 36.4103C26.2679 36.4892 26.2008 36.5642 26.1298 36.6432C26.0903 36.6827 26.0587 36.7182 26.0232 36.7577L25.8692 36.9432C25.8495 36.9669 25.8337 36.9826 25.814 37.0063L25.6679 37.1918C25.6482 37.2155 25.6364 37.2313 25.6166 37.2589L25.0838 38.072L24.7719 38.6602C24.6377 38.9523 24.543 39.1338 24.4246 39.4575L24.3022 39.7891C24.1601 40.1838 23.9904 40.8193 23.9154 41.2258L23.8167 41.8139C23.8088 41.8771 23.8009 41.9639 23.7852 42.0231" fill="#009278"/>
<path fill-rule="evenodd" clip-rule="evenodd" d="M24.0703 42.1289L24.0822 42.1408L24.2519 41.8842C24.2835 41.8408 24.3111 41.8013 24.3427 41.7618C24.3663 41.7342 24.3663 41.7263 24.39 41.7026C24.5203 41.5329 24.7058 41.3434 24.8637 41.1974C25.0176 41.0553 25.1321 40.9645 25.3058 40.8461C25.3216 40.8343 25.3216 40.8303 25.3413 40.8185L25.6097 40.6566C25.8268 40.5422 25.9413 40.4711 26.1781 40.3803C26.7346 40.1711 27.2833 40.0527 27.8753 39.9619C28.1043 39.9264 28.3806 39.8909 28.6332 39.8751C28.6806 39.8751 28.7792 39.8633 28.8227 39.8554C28.9371 39.8396 29.3003 39.8396 29.4226 39.8317C29.7029 39.808 30.3107 39.8198 30.6502 39.8198C30.7923 39.8198 30.9067 39.8317 31.0567 39.8317C31.1909 39.8317 31.3449 39.8238 31.4751 39.8317C31.6488 39.8435 31.5817 39.887 31.7554 39.7014C32.1975 39.2238 32.2527 39.1173 32.6119 38.6081L32.7777 38.3436C32.8764 38.1699 32.9987 37.945 33.0777 37.7634L33.1408 37.6016C33.1013 37.6134 33.0421 37.6489 33.0027 37.6726C32.9514 37.7002 32.9119 37.7239 32.8606 37.7476C32.3396 37.9726 31.9606 38.0002 31.408 38.0002C31.1909 38.0002 31.0962 37.9844 30.9067 37.9805L30.2318 37.9055C29.9752 37.87 29.691 37.8818 29.4384 37.9015L29.0555 37.9371C28.5819 38.0042 27.978 38.1463 27.5359 38.3476C27.3898 38.4147 27.2399 38.4778 27.0938 38.5568L26.6912 38.7936C26.4939 38.9317 26.3952 38.987 26.182 39.1567C26.1426 39.1923 26.0991 39.2199 26.0597 39.2554C25.6294 39.6304 25.4597 39.8198 25.0966 40.258C24.8795 40.5224 24.5676 41.0356 24.4137 41.3395C24.3861 41.3948 24.3624 41.4342 24.3387 41.4895C24.2953 41.5803 24.09 42.046 24.0782 42.125" fill="#009278"/>
<path fill-rule="evenodd" clip-rule="evenodd" d="M17.2657 39.8237C17.5815 39.8237 17.917 39.8197 18.2249 39.8434C18.2644 39.8434 18.3078 39.8434 18.3472 39.8434L18.5762 39.8631C18.6749 39.8789 18.8919 39.8829 19.0301 39.9026C19.0972 39.9105 19.1801 39.9145 19.2551 39.9263L19.8985 40.0289C20.0445 40.0526 20.1629 40.0881 20.305 40.1197C20.455 40.1513 20.5695 40.1868 20.6997 40.2223C20.8813 40.2697 20.9366 40.3013 21.0787 40.3447C21.355 40.4276 21.8286 40.6763 22.0773 40.8578C22.2391 40.9723 22.3536 41.0591 22.4996 41.1933C22.547 41.2367 22.5904 41.2683 22.6338 41.3157C22.6575 41.3433 22.6694 41.3552 22.697 41.3788C22.7759 41.4499 22.922 41.6315 22.997 41.7183L23.3167 42.1683C23.3127 42.1051 23.2614 41.9907 23.2377 41.9314C23.2022 41.8486 23.1785 41.7815 23.143 41.7025L22.9338 41.2644C22.6812 40.8026 22.5312 40.5815 22.2075 40.1631L21.6352 39.5355C21.6036 39.504 21.5839 39.4921 21.5523 39.4605L21.3865 39.3105C20.9129 38.9316 20.7787 38.8251 20.2656 38.5488C20.23 38.529 20.1984 38.5172 20.159 38.4974C20.1195 38.4777 20.0998 38.4659 20.0564 38.4461C19.7485 38.308 19.6853 38.2882 19.3893 38.1856C18.7814 37.9764 17.767 37.8225 17.1394 37.9172L16.4881 37.9883C15.9355 38.0159 15.4737 38.0475 14.9172 37.8975C14.8619 37.8817 14.7909 37.8659 14.7317 37.8422C14.6014 37.7909 14.5264 37.7633 14.4001 37.6922C14.3567 37.6685 14.2817 37.6212 14.2383 37.6133L14.3409 37.8462C14.3567 37.8817 14.3764 37.9212 14.3922 37.9567C14.4593 38.1027 14.6054 38.3553 14.6961 38.5014L14.9646 38.904C15.008 38.9711 15.0553 39.0303 15.1027 39.0935C15.1303 39.129 15.154 39.1566 15.1777 39.1882C15.2053 39.2237 15.229 39.2474 15.2527 39.2829L15.3316 39.3855C15.4224 39.4921 15.6356 39.7408 15.7145 39.8118C15.8013 39.8908 15.825 39.8434 15.9908 39.8434C16.425 39.8434 16.8315 39.8316 17.2657 39.8316" fill="#87B340"/>
<path fill-rule="evenodd" clip-rule="evenodd" d="M12.4289 40.3993C12.4289 40.3993 12.4408 40.3954 12.4408 40.4112L12.5789 40.7783C12.6066 40.8454 12.6263 40.8967 12.65 40.9638L13.0092 41.8992H13.0368C13.0368 41.8992 13.0368 41.8874 13.0486 41.8874C13.092 41.8874 13.1907 41.8519 13.2381 41.8361C13.2894 41.8203 13.3723 41.7887 13.4276 41.7848L13.4394 41.7729L13.9091 41.6624C14.9472 41.4295 15.3261 41.3861 16.4234 41.2874L16.976 41.2638C17.3352 41.2638 17.7576 41.2559 18.1089 41.2874C18.2746 41.3032 18.4562 41.2993 18.6457 41.323C18.918 41.3545 19.1391 41.3703 19.4193 41.4177C19.5061 41.4335 19.589 41.4453 19.6719 41.4532C19.9837 41.4887 20.5442 41.6229 20.8758 41.6979C20.9508 41.7137 21.0258 41.7374 21.1047 41.7571L21.4481 41.8519C21.4797 41.8637 21.531 41.8835 21.5705 41.8835L21.5823 41.8953C21.6771 41.9032 21.8192 41.9703 21.9139 41.9979C21.9731 42.0137 22.0205 42.0334 22.0797 42.0532C22.1152 42.065 22.2178 42.1045 22.2533 42.1084C22.2691 42.1084 22.2652 42.1045 22.2652 42.1203L22.9678 42.3808C22.9678 42.3808 23.0507 42.3492 23.0704 42.3413C23.0151 42.2308 22.877 42.0532 22.802 41.9506L22.4389 41.5401C22.2297 41.3309 21.9928 41.1611 21.7521 41.0032C21.7047 40.9717 21.6613 40.9519 21.6139 40.9204C21.535 40.869 21.4087 40.8098 21.3258 40.7704C20.8008 40.5335 20.3627 40.4428 19.8061 40.3283C19.5535 40.277 19.3127 40.2572 19.0522 40.2178C18.8825 40.1941 18.1957 40.1467 18.0457 40.1467C17.9628 40.1467 17.9075 40.1428 17.8404 40.1349C17.7062 40.123 16.9918 40.1349 16.7708 40.1349C16.6879 40.1349 16.6484 40.1467 16.5655 40.1467C16.4787 40.1467 15.9932 40.1388 15.9261 40.1507C15.855 40.1625 15.7879 40.1507 15.7208 40.1586C15.4564 40.1822 15.1722 40.1901 14.9117 40.2138C14.7735 40.2257 14.6275 40.2138 14.5012 40.2336C14.3946 40.2493 14.1933 40.2336 14.0749 40.2336C13.7117 40.2336 13.2973 40.1586 12.9539 40.0559C12.6934 39.977 12.4605 39.8309 12.2434 39.6612C12.2 39.6257 12.1684 39.5902 12.125 39.5586C12.1289 39.6217 12.421 40.3125 12.4408 40.3954" fill="#87B340"/>
<path fill-rule="evenodd" clip-rule="evenodd" d="M26.1834 41.7926C26.1834 41.7926 26.1834 41.7808 26.1952 41.7808L27.1386 41.5637C27.5096 41.4926 28.2675 41.3545 28.6543 41.3387C28.7411 41.3348 28.8319 41.319 28.9188 41.315C29.0411 41.315 29.2858 41.2795 29.4714 41.2834C29.57 41.2834 29.6411 41.2716 29.7477 41.2716H30.4739C30.5292 41.2716 30.545 41.2834 30.6042 41.2834C30.6516 41.2834 30.6989 41.2834 30.7463 41.2834C30.8094 41.2834 30.8213 41.2953 30.8805 41.2953C31.0778 41.2953 31.7331 41.3624 31.9462 41.394C32.5146 41.469 32.8817 41.544 33.4343 41.6624C33.6395 41.7058 34.0421 41.8084 34.2395 41.8716C34.2711 41.8795 34.3263 41.8992 34.3619 41.9031L35.1513 39.8664C35.171 39.8151 35.1908 39.7678 35.2065 39.7164C35.2223 39.6691 35.2539 39.6138 35.2579 39.5625C35.1552 39.6375 35.0921 39.7243 34.8908 39.8506C34.8474 39.8783 34.796 39.902 34.7487 39.9296C34.5276 40.048 34.1606 40.1546 33.9119 40.1861L33.5211 40.2296C33.3435 40.2335 33.0435 40.2572 32.8896 40.2375C32.7633 40.2217 32.6172 40.2296 32.483 40.2177C32.2225 40.194 31.9344 40.1861 31.6739 40.1625L31.2555 40.1506C31.1134 40.1506 30.9713 40.1506 30.8292 40.1506C30.7463 40.1506 30.7068 40.1388 30.6239 40.1388C30.3437 40.1388 29.7832 40.123 29.5503 40.1388C29.3411 40.1506 28.6859 40.1743 28.5438 40.198C28.4767 40.2098 28.4175 40.2098 28.3464 40.2177C27.8491 40.273 27.0123 40.419 26.5426 40.5848C26.4873 40.6045 26.44 40.6203 26.3808 40.6401C26.3216 40.6598 26.2781 40.6835 26.2268 40.7032C26.14 40.7387 25.8637 40.8651 25.7847 40.9164L25.1335 41.3703C24.944 41.5321 24.8572 41.6308 24.6874 41.8163C24.6124 41.8992 24.3322 42.2781 24.3164 42.3452C24.4348 42.4123 24.4072 42.3847 24.5335 42.3373C24.6559 42.2939 24.7466 42.2465 24.8769 42.211C25.015 42.1716 25.2795 42.061 25.4571 42.0097C25.5282 41.986 26.136 41.7966 26.1834 41.7966" fill="#009278"/>
</mask>
<g mask="url(#mask0_665_983)">
<path d="M46.479 24.0012C46.479 36.6915 36.1915 46.979 23.5012 46.979C10.8109 46.979 0.523438 36.6915 0.523438 24.0012C0.523438 11.3109 10.8109 1.02344 23.5012 1.02344C36.1915 1.02344 46.479 11.3109 46.479 24.0012Z" fill="url(#paint0_linear_665_983)"/>
</g>
<path d="M92.0521 14.8684H90.0687V19.6417H85.9492V3.99219H92.0521C96.1498 3.99219 98.6127 5.82306 98.6127 9.33222C98.6127 12.8632 96.1498 14.8684 92.0521 14.8684ZM92.0303 7.45776H90.0687V11.4028H92.0303C93.665 11.4028 94.5151 10.5746 94.5151 9.37581C94.5151 8.15523 93.665 7.45776 92.0303 7.45776Z" fill="white"/>
<path d="M83.8374 14.5205C83.8374 17.7463 81.2654 19.8606 77.1896 19.8606C73.1137 19.8606 70.4982 17.7027 70.2148 14.2372H74.3779C74.4215 15.7193 75.4023 16.6565 77.1024 16.6565C78.5191 16.6565 79.4564 16.1116 79.4564 15.1308C79.4564 14.4551 78.7807 13.9538 77.8653 13.7795L75.01 13.2346C72.5034 12.755 70.8469 11.2947 70.8469 8.76637C70.8469 5.8457 73.4189 3.79688 76.928 3.79688C80.6551 3.79688 83.3361 5.93289 83.5758 9.31127H79.4128C79.3038 7.89453 78.3448 6.9791 76.9716 6.9791C75.751 6.9791 75.01 7.63298 75.01 8.48302C75.01 9.1805 75.7074 9.59462 76.5357 9.74719L79.5653 10.3357C82.3552 10.8806 83.8374 12.2537 83.8374 14.5205Z" fill="white"/>
<path d="M61.1029 19.6417H55V3.99219H61.1029C66.0506 3.99219 69.1674 7.17441 69.1674 11.7298C69.1674 16.2852 65.9416 19.6417 61.1029 19.6417ZM59.1195 7.54494V16.089H60.8631C63.5876 16.089 64.939 14.6722 64.939 11.7298C64.939 8.96168 63.544 7.54494 60.8631 7.54494H59.1195Z" fill="white"/>
<path d="M150.547 31.8614H144.941V23.6641H147.099V29.9091H150.547V31.8614Z" fill="white"/>
<path d="M141.746 31.8614L141.243 30.343H138.366L137.853 31.8614H135.672L138.709 23.6641H141.072L144.075 31.8614H141.746ZM139.828 26.0388L138.949 28.6419H140.684L139.828 26.0388Z" fill="white"/>
<path d="M132.725 31.8614L129.46 26.7466V31.8614H127.484V23.6641H129.802L132.828 28.4021V23.6641H134.803V31.8614H132.725Z" fill="white"/>
<path d="M122.131 32.0321C119.767 32.0321 117.906 30.2396 117.906 27.7507C117.906 25.2618 119.767 23.4922 122.131 23.4922C124.505 23.4922 126.366 25.2618 126.366 27.7507C126.366 30.2396 124.505 32.0321 122.131 32.0321ZM122.131 30.1026C123.421 30.1026 124.14 29.0408 124.14 27.7507C124.14 26.4606 123.421 25.4217 122.131 25.4217C120.84 25.4217 120.121 26.4606 120.121 27.7507C120.121 29.0408 120.84 30.1026 122.131 30.1026Z" fill="white"/>
<path d="M116.783 31.8614H114.625V23.6641H116.783V31.8614Z" fill="white"/>
<path d="M111.142 31.8614H108.984V25.6164H106.473V23.6641H113.654V25.6164H111.142V31.8614Z" fill="white"/>
<path d="M104.586 31.8614L104.083 30.343H101.206L100.692 31.8614H98.5117L101.549 23.6641H103.912L106.915 31.8614H104.586ZM102.667 26.0388L101.788 28.6419H103.524L102.667 26.0388Z" fill="white"/>
<path d="M95.5607 31.8614L92.2954 26.7466V31.8614H90.3203V23.6641H92.638L95.6635 28.4021V23.6641H97.6386V31.8614H95.5607Z" fill="white"/>
<path d="M84.3961 31.8614H82.2383V23.6641H85.5949C87.8098 23.6641 89.077 24.6573 89.077 26.4041C89.077 27.4545 88.4491 28.3222 87.3417 28.7903L89.3511 31.8614H86.7822L85.1039 29.1328H84.3961V31.8614ZM84.3961 25.4451V27.3517H85.5035C86.4626 27.3517 86.9078 27.0549 86.9078 26.4041C86.9078 25.7534 86.4626 25.4451 85.5035 25.4451H84.3961Z" fill="white"/>
<path d="M81.0029 29.9891V31.8614H75.2031V23.6641H80.923V25.5364H77.3609V26.7124H80.5919V28.5848H77.3609V29.9891H81.0029Z" fill="white"/>
<path d="M71.7164 31.8614H69.5586V25.6164H67.0469V23.6641H74.2281V25.6164H71.7164V31.8614Z" fill="white"/>
<path d="M63.9982 31.8614L60.7329 26.7466V31.8614H58.7578V23.6641H61.0755L64.101 28.4021V23.6641H66.0761V31.8614H63.9982Z" fill="white"/>
<path d="M57.1578 31.8614H55V23.6641H57.1578V31.8614Z" fill="white"/>
<path d="M104.817 44.0333H99.2109V35.8359H101.369V42.081H104.817V44.0333Z" fill="white"/>
<path d="M93.8571 44.204C91.4938 44.204 89.6328 42.4115 89.6328 39.9226C89.6328 37.4337 91.4938 35.6641 93.8571 35.6641C96.2318 35.6641 98.0928 37.4337 98.0928 39.9226C98.0928 42.4115 96.2318 44.204 93.8571 44.204ZM93.8571 42.2745C95.1472 42.2745 95.8665 41.2127 95.8665 39.9226C95.8665 38.6325 95.1472 37.5935 93.8571 37.5935C92.567 37.5935 91.8477 38.6325 91.8477 39.9226C91.8477 41.2127 92.567 42.2745 93.8571 42.2745Z" fill="white"/>
<path d="M84.7555 44.204C82.3922 44.204 80.5312 42.4115 80.5312 39.9226C80.5312 37.4337 82.3922 35.6641 84.7555 35.6641C87.1303 35.6641 88.9912 37.4337 88.9912 39.9226C88.9912 42.4115 87.1303 44.204 84.7555 44.204ZM84.7555 42.2745C86.0456 42.2745 86.7649 41.2127 86.7649 39.9226C86.7649 38.6325 86.0456 37.5935 84.7555 37.5935C83.4654 37.5935 82.7461 38.6325 82.7461 39.9226C82.7461 41.2127 83.4654 42.2745 84.7555 42.2745Z" fill="white"/>
<path d="M74.2281 44.0333H72.0703V35.8359H74.2281V38.8843H77.2536V35.8359H79.4114V44.0333H77.2536V40.7567H74.2281V44.0333Z" fill="white"/>
<path d="M66.7063 44.204C64.3772 44.204 62.5391 42.3316 62.5391 39.9226C62.5391 37.525 64.3772 35.6641 66.7063 35.6641C68.9554 35.6641 70.6908 37.1597 70.9534 39.3289H68.67C68.4987 38.3014 67.7338 37.5935 66.7291 37.5935C65.5189 37.5935 64.754 38.5297 64.754 39.9226C64.754 41.3269 65.5189 42.2745 66.7291 42.2745C67.7224 42.2745 68.4873 41.5666 68.67 40.5277H70.9534C70.6794 42.7197 68.9554 44.204 66.7063 44.204Z" fill="white"/>
<path d="M62.1356 41.3515C62.1356 43.0412 60.7884 44.1487 58.6534 44.1487C56.5185 44.1487 55.1484 43.0184 55 41.2031H57.1806C57.2035 41.9795 57.7172 42.4704 58.6078 42.4704C59.3499 42.4704 59.8408 42.185 59.8408 41.6712C59.8408 41.3173 59.4869 41.0547 59.0074 40.9633L57.5117 40.6779C56.1988 40.4268 55.3311 39.6618 55.3311 38.3374C55.3311 36.8076 56.6783 35.7344 58.5164 35.7344C60.4687 35.7344 61.873 36.8532 61.9986 38.6229H59.818C59.7609 37.8808 59.2585 37.4013 58.5393 37.4013C57.8999 37.4013 57.5117 37.7438 57.5117 38.189C57.5117 38.5544 57.8771 38.7713 58.3109 38.8512L59.8979 39.1595C61.3593 39.4449 62.1356 40.1642 62.1356 41.3515Z" fill="white"/>
<defs>
<linearGradient id="paint0_linear_665_983" x1="0.523438" y1="1.02344" x2="48.5306" y2="3.2771" gradientUnits="userSpaceOnUse">
<stop stop-color="#699940"/>
<stop offset="1" stop-color="#00713C"/>
</linearGradient>
</defs>
</svg>
